<svg xmlns="http://www.w3.org/2000/svg" version="1.1" xmlns:xlink="http://www.w3.org/1999/xlink" xmlns:svgjs="http://svgjs.com/svgjs" width="1440" height="560" preserveAspectRatio="none" viewBox="0 0 1440 560"><g mask="url(&quot;#SvgjsMask1270&quot;)" fill="none"><rect width="1440" height="560" x="0" y="0" fill="#0e2a47"></rect><path d="M69.46 204.77L134.41 242.27L134.41 317.27L69.46 354.77L4.51 317.27L4.51 242.27zM264.32 92.27L329.27 129.77L329.27 204.77L264.32 242.27L199.37 204.77L199.37 129.77zM264.32 317.27L329.27 354.77L329.27 429.77L264.32 467.27L199.37 429.77L199.37 354.77zM524.14 317.27L589.09 354.77L589.09 429.77L524.14 467.27L459.18 429.77L459.18 354.77zM589.09 204.77L654.04 242.27L654.04 317.27L589.09 354.77L524.14 317.27L524.14 242.27zM719 204.77L783.95 242.27L783.95 317.27L719 354.77L654.04 317.27L654.04 242.27zM913.86 542.27L978.81 579.77L978.81 654.77L913.86 692.27L848.9 654.77L848.9 579.77zM1043.77 317.27L1108.72 354.77L1108.72 429.77L1043.77 467.27L978.81 429.77L978.81 354.77zM1108.72 -20.23L1173.67 17.27L1173.67 92.27L1108.72 129.77L1043.77 92.27L1043.77 17.27zM1433.49 317.27L1498.44 354.77L1498.44 429.77L1433.49 467.27L1368.54 429.77L1368.54 354.77zM1368.54 429.77L1433.49 467.27L1433.49 542.27L1368.54 579.77L1303.58 542.27L1303.58 467.27z" stroke="#03305d" stroke-width="2"></path><path d="M61.96 204.77 a7.5 7.5 0 1 0 15 0 a7.5 7.5 0 1 0 -15 0zM126.91 242.27 a7.5 7.5 0 1 0 15 0 a7.5 7.5 0 1 0 -15 0zM126.91 317.27 a7.5 7.5 0 1 0 15 0 a7.5 7.5 0 1 0 -15 0zM61.96 354.77 a7.5 7.5 0 1 0 15 0 a7.5 7.5 0 1 0 -15 0zM-2.99 317.27 a7.5 7.5 0 1 0 15 0 a7.5 7.5 0 1 0 -15 0zM-2.99 242.27 a7.5 7.5 0 1 0 15 0 a7.5 7.5 0 1 0 -15 0zM256.82 92.27 a7.5 7.5 0 1 0 15 0 a7.5 7.5 0 1 0 -15 0zM321.77 129.77 a7.5 7.5 0 1 0 15 0 a7.5 7.5 0 1 0 -15 0zM321.77 204.77 a7.5 7.5 0 1 0 15 0 a7.5 7.5 0 1 0 -15 0zM256.82 242.27 a7.5 7.5 0 1 0 15 0 a7.5 7.5 0 1 0 -15 0zM191.87 204.77 a7.5 7.5 0 1 0 15 0 a7.5 7.5 0 1 0 -15 0zM191.87 129.77 a7.5 7.5 0 1 0 15 0 a7.5 7.5 0 1 0 -15 0zM256.82 317.27 a7.5 7.5 0 1 0 15 0 a7.5 7.5 0 1 0 -15 0zM321.77 354.77 a7.5 7.5 0 1 0 15 0 a7.5 7.5 0 1 0 -15 0zM321.77 429.77 a7.5 7.5 0 1 0 15 0 a7.5 7.5 0 1 0 -15 0zM256.82 467.27 a7.5 7.5 0 1 0 15 0 a7.5 7.5 0 1 0 -15 0zM191.87 429.77 a7.5 7.5 0 1 0 15 0 a7.5 7.5 0 1 0 -15 0zM191.87 354.77 a7.5 7.5 0 1 0 15 0 a7.5 7.5 0 1 0 -15 0zM516.64 317.27 a7.5 7.5 0 1 0 15 0 a7.5 7.5 0 1 0 -15 0zM581.59 354.77 a7.5 7.5 0 1 0 15 0 a7.5 7.5 0 1 0 -15 0zM581.59 429.77 a7.5 7.5 0 1 0 15 0 a7.5 7.5 0 1 0 -15 0zM516.64 467.27 a7.5 7.5 0 1 0 15 0 a7.5 7.5 0 1 0 -15 0zM451.68 429.77 a7.5 7.5 0 1 0 15 0 a7.5 7.5 0 1 0 -15 0zM451.68 354.77 a7.5 7.5 0 1 0 15 0 a7.5 7.5 0 1 0 -15 0zM581.59 204.77 a7.5 7.5 0 1 0 15 0 a7.5 7.5 0 1 0 -15 0zM646.54 242.27 a7.5 7.5 0 1 0 15 0 a7.5 7.5 0 1 0 -15 0zM646.54 317.27 a7.5 7.5 0 1 0 15 0 a7.5 7.5 0 1 0 -15 0zM516.64 242.27 a7.5 7.5 0 1 0 15 0 a7.5 7.5 0 1 0 -15 0zM711.5 204.77 a7.5 7.5 0 1 0 15 0 a7.5 7.5 0 1 0 -15 0zM776.45 242.27 a7.5 7.5 0 1 0 15 0 a7.5 7.5 0 1 0 -15 0zM776.45 317.27 a7.5 7.5 0 1 0 15 0 a7.5 7.5 0 1 0 -15 0zM711.5 354.77 a7.5 7.5 0 1 0 15 0 a7.5 7.5 0 1 0 -15 0zM906.36 542.27 a7.5 7.5 0 1 0 15 0 a7.5 7.5 0 1 0 -15 0zM971.31 579.77 a7.5 7.5 0 1 0 15 0 a7.5 7.5 0 1 0 -15 0zM971.31 654.77 a7.5 7.5 0 1 0 15 0 a7.5 7.5 0 1 0 -15 0zM906.36 692.27 a7.5 7.5 0 1 0 15 0 a7.5 7.5 0 1 0 -15 0zM841.4 654.77 a7.5 7.5 0 1 0 15 0 a7.5 7.5 0 1 0 -15 0zM841.4 579.77 a7.5 7.5 0 1 0 15 0 a7.5 7.5 0 1 0 -15 0zM1036.27 317.27 a7.5 7.5 0 1 0 15 0 a7.5 7.5 0 1 0 -15 0zM1101.22 354.77 a7.5 7.5 0 1 0 15 0 a7.5 7.5 0 1 0 -15 0zM1101.22 429.77 a7.5 7.5 0 1 0 15 0 a7.5 7.5 0 1 0 -15 0zM1036.27 467.27 a7.5 7.5 0 1 0 15 0 a7.5 7.5 0 1 0 -15 0zM971.31 429.77 a7.5 7.5 0 1 0 15 0 a7.5 7.5 0 1 0 -15 0zM971.31 354.77 a7.5 7.5 0 1 0 15 0 a7.5 7.5 0 1 0 -15 0zM1101.22 -20.23 a7.5 7.5 0 1 0 15 0 a7.5 7.5 0 1 0 -15 0zM1166.17 17.27 a7.5 7.5 0 1 0 15 0 a7.5 7.5 0 1 0 -15 0zM1166.17 92.27 a7.5 7.5 0 1 0 15 0 a7.5 7.5 0 1 0 -15 0zM1101.22 129.77 a7.5 7.5 0 1 0 15 0 a7.5 7.5 0 1 0 -15 0zM1036.27 92.27 a7.5 7.5 0 1 0 15 0 a7.5 7.5 0 1 0 -15 0zM1036.27 17.27 a7.5 7.5 0 1 0 15 0 a7.5 7.5 0 1 0 -15 0zM1425.99 317.27 a7.5 7.5 0 1 0 15 0 a7.5 7.5 0 1 0 -15 0zM1490.94 354.77 a7.5 7.5 0 1 0 15 0 a7.5 7.5 0 1 0 -15 0zM1490.94 429.77 a7.5 7.5 0 1 0 15 0 a7.5 7.5 0 1 0 -15 0zM1425.99 467.27 a7.5 7.5 0 1 0 15 0 a7.5 7.5 0 1 0 -15 0zM1361.04 429.77 a7.5 7.5 0 1 0 15 0 a7.5 7.5 0 1 0 -15 0zM1361.04 354.77 a7.5 7.5 0 1 0 15 0 a7.5 7.5 0 1 0 -15 0zM1425.99 542.27 a7.5 7.5 0 1 0 15 0 a7.5 7.5 0 1 0 -15 0zM1361.04 579.77 a7.5 7.5 0 1 0 15 0 a7.5 7.5 0 1 0 -15 0zM1296.08 542.27 a7.5 7.5 0 1 0 15 0 a7.5 7.5 0 1 0 -15 0zM1296.08 467.27 a7.5 7.5 0 1 0 15 0 a7.5 7.5 0 1 0 -15 0z" fill="#03305d"></path><path d="M27.44 145.6L70.74 170.6L70.74 220.6L27.44 245.6L-15.86 220.6L-15.86 170.6zM157.35 220.6L200.65 245.6L200.65 295.6L157.35 320.6L114.05 295.6L114.05 245.6zM157.35 520.6L200.65 545.6L200.65 595.6L157.35 620.6L114.05 595.6L114.05 545.6zM200.65 145.6L243.95 170.6L243.95 220.6L200.65 245.6L157.35 220.6L157.35 170.6zM330.56 220.6L373.86 245.6L373.86 295.6L330.56 320.6L287.25 295.6L287.25 245.6zM287.25 295.6L330.56 320.6L330.56 370.6L287.25 395.6L243.95 370.6L243.95 320.6zM373.86 145.6L417.16 170.6L417.16 220.6L373.86 245.6L330.56 220.6L330.56 170.6zM460.47 -4.4L503.77 20.6L503.77 70.6L460.47 95.6L417.16 70.6L417.16 20.6zM676.98 70.6L720.28 95.6L720.28 145.6L676.98 170.6L633.68 145.6L633.68 95.6zM720.28 295.6L763.58 320.6L763.58 370.6L720.28 395.6L676.98 370.6L676.98 320.6zM720.28 445.6L763.58 470.6L763.58 520.6L720.28 545.6L676.98 520.6L676.98 470.6zM850.19 220.6L893.49 245.6L893.49 295.6L850.19 320.6L806.89 295.6L806.89 245.6zM936.79 70.6L980.1 95.6L980.1 145.6L936.79 170.6L893.49 145.6L893.49 95.6zM893.49 145.6L936.79 170.6L936.79 220.6L893.49 245.6L850.19 220.6L850.19 170.6zM980.1 -4.4L1023.4 20.6L1023.4 70.6L980.1 95.6L936.79 70.6L936.79 20.6zM1110 220.6L1153.31 245.6L1153.31 295.6L1110 320.6L1066.7 295.6L1066.7 245.6zM1153.31 445.6L1196.61 470.6L1196.61 520.6L1153.31 545.6L1110 520.6L1110 470.6zM1239.91 145.6L1283.21 170.6L1283.21 220.6L1239.91 245.6L1196.61 220.6L1196.61 170.6zM1283.21 220.6L1326.52 245.6L1326.52 295.6L1283.21 320.6L1239.91 295.6L1239.91 245.6zM1326.52 295.6L1369.82 320.6L1369.82 370.6L1326.52 395.6L1283.21 370.6L1283.21 320.6zM1456.42 70.6L1499.73 95.6L1499.73 145.6L1456.42 170.6L1413.12 145.6L1413.12 95.6z" stroke="url(#SvgjsLinearGradient1271)" stroke-width="2"></path></g><defs><mask id="SvgjsMask1270"><rect width="1440" height="560" fill="#ffffff"></rect></mask><linearGradient x1="220.03199999999998" y1="780.024" x2="1219.9679999999998" y2="-220.02399999999997" gradientUnits="userSpaceOnUse" id="SvgjsLinearGradient1271"><stop stop-color="#0e2a47" offset="0"></stop><stop stop-color="rgba(19, 89, 178, 1)" offset="0"></stop></linearGradient></defs></svg>